# xmcd CD database file
#
# Track frame offsets:
#	150
#	21287
#	39620
#
# Disc length: 807 seconds
#
# Revision: 9
# Processed by: cddbd v1.5PL3 Copyright (c) Steve Scherf et al.
# Submitted via: CDex 1.50beta9
#
DISCID=1e032503
DTITLE=タンポポ - BE HAPPY 恋のやじろべえ
DYEAR=2002
DGENRE=Rock
TTITLE0=BE HAPPY 恋のやじろべえ
TTITLE1=やるときゃやらなきゃ女の子
TTITLE2=BE HAPPY 恋のやじろべえ(Instrumental)
EXTD=YEAR: 2002
EXTT0=
EXTT1=
EXTT2=
PLAYORDER=
